<?xml version="1.0" encoding="UTF-8" standalone="no"?>
<svg
   version="1.1"
   id="Layer_1"
   x="0px"
   y="0px"
   width="100%"
   viewBox="0 0 1024 544"
   enable-background="new 0 0 1024 544"
   xml:space="preserve"
   sodipodi:docname="logo-kiora-vectorizado.svg"
   inkscape:version="1.4.2 (f4327f4, 2025-05-13)"
   xmlns:inkscape="http://www.inkscape.org/namespaces/inkscape"
   xmlns:sodipodi="http://sodipodi.sourceforge.net/DTD/sodipodi-0.dtd"
   xmlns="http://www.w3.org/2000/svg"
   xmlns:svg="http://www.w3.org/2000/svg"><defs
   id="defs6" /><sodipodi:namedview
   id="namedview6"
   pagecolor="#ffffff"
   bordercolor="#000000"
   borderopacity="0.25"
   inkscape:showpageshadow="2"
   inkscape:pageopacity="0.0"
   inkscape:pagecheckerboard="0"
   inkscape:deskcolor="#d1d1d1"
   inkscape:zoom="0.54437357"
   inkscape:cx="382.09055"
   inkscape:cy="258.09482"
   inkscape:window-width="1366"
   inkscape:window-height="705"
   inkscape:window-x="1596"
   inkscape:window-y="-8"
   inkscape:window-maximized="1"
   inkscape:current-layer="Layer_1" />
<path
   fill="#000000"
   opacity="1.000000"
   stroke="none"
   d=" M846.403076,396.372192   C828.411560,415.591675 806.211426,419.890045 781.660522,415.947510   C763.518127,413.034058 749.232300,404.073822 740.374207,387.656158   C728.099182,364.905518 730.968872,325.781372 762.516602,309.064606   C780.477539,299.547394 799.912903,295.301666 819.604553,291.711487   C828.932190,290.010895 838.262756,288.315857 847.622681,286.809204   C850.204529,286.393616 850.799927,285.116364 850.916504,282.787506   C851.462708,271.878723 844.443848,262.080566 833.396729,259.767365   C826.224731,258.265594 818.855591,258.427460 811.626770,260.456238   C803.506836,262.735107 797.596313,267.796387 792.821533,274.517334   C788.040466,281.247162 782.114380,286.205933 773.542480,287.549622   C754.066345,290.602570 739.443054,275.653351 743.026978,256.223572   C745.398438,243.366852 752.645325,233.732880 762.838196,226.075653   C777.319458,215.196854 794.182556,210.634781 811.779785,209.065872   C828.775024,207.550613 845.758057,208.480011 862.209290,213.795242   C890.500854,222.935974 905.264954,243.078522 909.379272,271.876190   C911.390381,285.953003 911.036133,300.118073 911.048218,314.270508   C911.057678,325.436310 911.137207,336.603027 911.018799,347.767609   C910.908691,358.144562 911.636963,368.302032 915.228760,378.227417   C923.133362,400.070557 907.149902,418.762817 881.127563,414.767944   C868.449951,412.821716 860.640320,405.206360 857.498718,392.717316   C856.948853,390.531525 857.028503,388.039490 854.768311,385.675598   C852.004028,389.222717 849.322266,392.663910 846.403076,396.372192  M824.824463,366.481659   C846.494995,360.170380 854.237305,340.069000 849.918640,319.537933   C843.391479,320.310516 836.956238,321.731873 830.571533,323.375153   C820.721680,325.910339 811.033936,328.958160 802.599976,334.864716   C795.840454,339.598724 792.679016,348.815735 794.975098,355.984680   C797.389954,363.524719 804.031982,367.872986 813.161743,367.889343   C816.827698,367.895935 820.473389,367.721527 824.824463,366.481659  z"
   id="path2"
   style="fill:#4b2418;fill-opacity:1" /><path
   fill="#000000"
   opacity="1.000000"
   stroke="none"
   d=" M115.350311,393.163940   C115.024696,390.431061 114.658165,388.116608 114.644859,385.800140   C114.441963,350.482971 114.148491,315.165466 114.156380,279.848114   C114.164192,244.892059 114.422874,209.935516 114.716324,174.980408   C114.790382,166.159683 117.733765,158.629562 124.659775,152.450424   C133.420609,144.634308 159.988495,144.098618 169.108612,153.849213   C174.153000,159.242294 176.880417,165.471619 177.278244,172.657227   C178.503769,194.792389 178.086960,216.942078 177.503815,239.088470   C177.451187,241.086899 177.276291,243.100021 177.443756,245.082184   C177.701782,248.136108 175.829788,252.300888 178.846817,253.965973   C182.207352,255.820679 185.341614,252.428085 188.179474,250.635376   C196.804672,245.186783 202.937973,237.279663 208.686142,229.043777   C222.515976,209.228683 235.244247,188.704468 247.896210,168.131775   C250.431091,164.009903 253.022156,159.925110 256.266876,156.325317   C269.315552,141.848801 294.653107,143.112732 304.584351,159.042618   C311.475281,170.095764 310.748840,181.700089 304.364410,192.731125   C293.989014,210.657761 280.910278,226.709351 268.372070,243.111938   C261.598816,251.972748 254.502899,260.600586 247.244629,269.069641   C244.707993,272.029419 244.573166,274.078613 246.838135,277.231995   C264.231537,301.447662 281.468353,325.775879 298.743469,350.076477   C302.797180,355.778778 306.892700,361.453857 310.829224,367.236542   C323.190643,385.395081 314.591858,409.553101 293.457306,414.545319   C278.767914,418.015106 265.926910,413.859161 256.892456,401.185730   C249.644531,391.018341 242.778595,380.570160 235.979324,370.093323   C223.466431,350.812469 211.083801,331.446503 198.756805,312.046143   C196.617325,308.678986 194.223251,307.556305 190.426117,309.115570   C188.136353,310.055817 185.655273,310.767242 183.202057,311.022034   C178.394257,311.521332 177.330460,314.344788 177.391525,318.602905   C177.680420,338.743317 177.888840,358.885620 177.966843,379.027832   C177.984818,383.674133 177.812408,388.403290 176.971802,392.954742   C174.808823,404.666351 166.708191,412.297943 154.863297,414.420441   C148.903397,415.488373 142.944931,415.556519 136.987503,414.411499   C125.274559,412.160217 118.120445,405.197815 115.350311,393.163940  z"
   id="path1"
   style="fill:#4b2418;fill-opacity:1" /><path
   fill="#000000"
   opacity="1.000000"
   stroke="none"
   d=" M391.590118,181.238998   C387.432312,190.739792 380.359863,195.985794 370.644714,197.622574   C362.704559,198.960342 354.702698,199.018295 346.870117,196.981308   C334.746979,193.828522 327.906036,185.190216 326.735474,172.036087   C324.826477,150.583862 336.559021,137.707031 358.150391,137.658798   C362.295807,137.649551 366.454376,137.330475 370.584167,138.262955   C390.322968,142.719742 396.430145,158.902267 392.873352,177.049957   C392.618561,178.349991 392.128571,179.603958 391.590118,181.238998  z"
   id="path6"
   style="fill:#4b2418;fill-opacity:1" /><path
   fill="#000000"
   opacity="1.000000"
   stroke="none"
   d=" M390.247864,290.000000   C390.241821,321.806305 390.227356,353.112640 390.237701,384.418945   C390.238861,387.920197 390.041016,391.376099 389.448303,394.846985   C387.854858,404.177795 381.086426,411.803253 371.986328,413.936279   C365.609222,415.431061 359.120239,415.697510 352.641205,414.669891   C338.818054,412.477386 330.748932,403.360107 330.698303,389.335938   C330.559448,350.869781 330.603241,312.402893 330.586761,273.936310   C330.581635,261.958008 330.398193,249.974564 330.684113,238.002731   C331.064301,222.083038 341.516235,211.920395 357.336884,211.717422   C360.991302,211.670547 364.716980,211.504990 368.293884,212.096085   C382.055267,214.370209 390.048157,224.728104 390.202759,240.542206   C390.362305,256.860046 390.243683,273.180634 390.247864,290.000000  z"
   id="path5"
   style="fill:#4b2418;fill-opacity:1" /><path
   fill="#000000"
   opacity="1.000000"
   stroke="none"
   d=" M610.751770,271.000000   C610.741455,258.673035 610.680359,246.845840 610.735840,235.019180   C610.808960,219.419861 618.654175,211.638885 634.126648,211.689301   C634.792969,211.691467 635.459229,211.692474 636.125549,211.694962   C653.871033,211.761246 660.803833,218.170471 662.315308,235.906570   C662.831665,241.965530 663.212097,243.550003 664.830383,246.234818   C667.212341,245.223953 667.073059,242.716522 667.906677,240.872589   C674.200623,226.952042 682.460876,215.025391 697.975830,210.110886   C711.523315,205.819595 723.975342,208.995270 730.210938,218.849915   C735.224121,226.772797 734.728760,235.693146 733.846985,244.553543   C733.699524,246.035446 733.309998,247.503265 732.929016,248.950394   C729.132019,263.373688 721.708923,269.687225 707.180237,266.936829   C686.990906,263.114807 672.296143,278.054077 671.517517,298.835052   C670.489014,326.283295 671.069702,353.790924 670.886292,381.272552   C670.856323,385.761871 670.663635,390.271484 670.179626,394.731934   C669.180969,403.934540 661.790405,411.966553 652.394348,414.121674   C644.644897,415.899139 636.804932,415.775818 629.114807,413.922241   C617.460449,411.113129 610.771484,401.195740 610.755066,386.937744   C610.713501,350.957184 610.754822,314.976532 610.762085,278.995911   C610.762573,276.497284 610.756104,273.998627 610.751770,271.000000  z"
   id="path4"
   style="fill:#4b2418;fill-opacity:1" /><path
   fill="#000000"
   opacity="1.000000"
   stroke="none"
   d=" M519.437073,415.541046   C476.248871,423.057709 433.680634,405.922302 416.137878,363.192108   C409.077637,345.994965 407.045044,327.897736 407.450500,309.400879   C407.770233,294.814514 409.587494,280.482056 414.578735,266.771118   C425.854736,235.795776 447.519440,216.804535 480.169647,210.522858   C495.290771,207.613663 510.265106,208.052567 525.265503,210.984665   C531.734985,212.249252 531.933533,212.615265 530.168945,219.029114   C527.856018,227.435928 533.122192,237.088638 542.374207,240.310974   C545.870117,241.528564 546.176819,242.929901 545.241272,246.095230   C541.131287,260.001251 550.872498,272.366943 565.262878,271.485046   C568.129944,271.309326 569.372131,272.045990 570.323669,274.784698   C573.626831,284.291809 577.277527,286.771667 587.823242,286.902374   C590.405029,286.934418 591.953613,287.573456 592.298279,290.319733   C596.133667,320.881104 594.679321,350.712860 577.742676,377.635773   C564.369812,398.893585 544.835632,411.540100 519.437073,415.541046  M524.278625,349.731689   C535.497009,326.394196 534.789001,302.682404 525.698120,279.065979   C521.546143,268.280029 513.065308,261.732056 501.212830,261.504730   C489.394287,261.278137 481.189484,267.495026 476.054169,278.032837   C469.799347,290.867950 468.898651,304.518036 469.421173,318.466675   C469.831299,329.415466 471.528259,339.998199 477.046295,349.661774   C482.775940,359.695923 491.184753,364.695831 502.991058,363.877563   C512.575745,363.213287 518.998596,358.062500 524.278625,349.731689  z"
   id="path3"
   style="fill:#c5202e;fill-opacity:1" />





<path
   style="fill:#dd555d;fill-opacity:1;stroke-width:0.619295"
   d="m 447.14523,241.30029 -3.18915,2.5847 -1.70847,1.84622 -1.59457,1.60006 -1.70847,2.5847 -1.82237,2.09237 -1.82237,2.95395 -1.25288,2.21546 -2.05016,4.554 -2.39186,5.41556 -1.59457,5.66173 -1.02508,3.9386 -0.68339,4.67708 0.3417,4.30784 1.02508,1.96929 1.59456,0.98465 2.50576,0.73848 2.05016,-0.24616 1.70848,-1.47697 1.70847,-2.21546 0.56949,-1.84621 0.68339,-3.44627 0.68338,-3.56935 1.93627,-4.92325 1.70847,-4.18475 2.27796,-4.30784 2.84745,-4.06167 2.39186,-3.20011 2.39186,-2.58471 2.61965,-2.46162 2.39186,-2.21546 1.13898,-0.86156 2.27796,-1.47698 2.50575,-1.35389 1.70848,-1.23081 2.05016,-1.35389 0.91118,-1.23081 0.79729,-2.21546 v -2.5847 l -0.68339,-1.3539 -1.36678,-1.10772 -1.02508,-0.73849 -1.36678,-0.73849 -1.48067,-0.36924 -1.36677,0.24616 -2.27796,0.73849 -3.18915,1.60006 -2.39185,1.47697 -2.84746,1.72313 -2.05016,1.60005 z"
   id="path7" /><path
   style="fill:#000000;fill-opacity:1"
   d="m 644.59731,833.59259 -17.21091,7.46889"
   id="path11" /></svg>
